<svg xmlns="http://www.w3.org/2000/svg" xmlns:xlink="http://www.w3.org/1999/xlink" fill="none" version="1.1" width="148"
     height="148" viewBox="0 0 148 148">
    <g>
        <g>
            <rect x="0" y="0" width="148" height="148" rx="32" fill="#FFFFFF" fill-opacity="1"/>
        </g>
        <g transform="matrix(1,0,0,-1,0,252.0625)">
            <g style="opacity:0.6000000238418579;">
                <rect x="42.61607074737549" y="139.0030279159546" width="75.32142639160156" height="91.0907211303711"
                      rx="12" fill="#4786FF" fill-opacity="1"/>
                <rect x="44.61607074737549" y="141.0030279159546" width="71.32142639160156" height="87.0907211303711"
                      rx="10" fill-opacity="0" stroke-opacity="0.120000006556511" stroke="#FFFFFF" fill="none"
                      stroke-width="4"/>
            </g>
            <g>
                <rect x="30.0625" y="126.03125" width="75.32142639160156" height="91.0907211303711" rx="12"
                      fill="#4786FF" fill-opacity="1"/>
                <rect x="32.0625" y="128.03125" width="71.32142639160156" height="87.0907211303711" rx="10"
                      fill-opacity="0" stroke-opacity="0.20000000298023224" stroke="#FFFFFF" fill="none"
                      stroke-width="4"/>
            </g>
            <g transform="matrix(1,0,0,-1,0,332.77579498291016)">
                <path d="M76.76683129882812,167.25331049145507C76.99320129882813,166.7270174914551,77.49826129882813,166.38789749145508,78.05557129882813,166.38789749145508C78.05557129882813,166.38789749145508,89.19453129882812,166.38789749145508,89.19453129882812,166.38789749145508C90.24283129882812,166.38789749145508,90.92463129882813,167.52789749145506,90.45583129882813,168.49687749145508C90.45583129882813,168.49687749145508,87.28743129882812,175.0449074914551,87.28743129882812,175.0449074914551C87.28743129882812,175.0449074914551,91.97593129882813,175.0449074914551,91.97593129882813,175.0449074914551C93.23233129882813,175.0449074914551,93.86173129882812,176.61459749145507,92.97323129882813,177.53259749145508C92.97323129882813,177.53259749145508,76.28302129882812,194.77889749145507,76.28302129882812,194.77889749145507C75.23071129882813,195.86619749145507,73.47730129882812,194.74619749145506,73.94789129882813,193.28749749145507C73.94789129882813,193.28749749145507,77.50551129882813,182.25909749145507,77.50551129882813,182.25909749145507C77.50551129882813,182.25909749145507,72.48270129882812,182.25909749145507,72.48270129882812,182.25909749145507C71.46211929882813,182.25909749145507,70.77948629882812,181.17359749145507,71.19396829882812,180.20999749145508C71.19396829882812,180.20999749145508,76.76683129882812,167.25331049145507,76.76683129882812,167.25331049145507C76.76683129882812,167.25331049145507,76.76683129882812,167.25331049145507,76.76683129882812,167.25331049145507Z"
                      fill-rule="evenodd" fill="#FFFFFF" fill-opacity="0.800000011920929"/>
            </g>
            <g transform="matrix(1,0,0,-1,0,397.34642028808594)">
                <rect x="44.84781455993652" y="198.67321014404297" width="45.75080108642578" height="5.765235900878906"
                      rx="2.882617950439453" fill="#FFFFFF" fill-opacity="0.800000011920929"/>
            </g>
            <g transform="matrix(1,0,0,-1,0,365.0611038208008)">
                <rect x="44.84781455993652" y="182.5305519104004" width="31.244447708129883" height="5.765235900878906"
                      rx="2.882617950439453" fill="#FFFFFF" fill-opacity="0.800000011920929"/>
            </g>
            <g transform="matrix(1,0,0,-1,0,332.7757873535156)">
                <rect x="44.84781455993652" y="166.3878936767578" width="16.738096237182617" height="5.765235900878906"
                      rx="2.882617950439453" fill="#FFFFFF" fill-opacity="0.800000011920929"/>
            </g>
        </g>
    </g>
</svg>