<svg xmlns="http://www.w3.org/2000/svg" xmlns:xlink="http://www.w3.org/1999/xlink" fill="none" version="1.1" width="96"
     height="96" viewBox="0 0 96 96">
    <g>
        <g>
            <path d="M16,16C16,11.58172,19.581699999999998,8,24,8L54.3432,8C56.4648,8,58.4996,8.842856,60,10.34314L77.6568,28C79.1572,29.5003,80,31.5351,80,33.656800000000004L80,80C80,84.4184,76.4184,88,72,88L48,88L48,80L72,80L72,40L54,40C50.6864,40,48,37.3137,48,34L48,16L24,16L24,48L16,48L16,16ZM56,17.656840000000003L70.3432,32L56,32L56,17.656840000000003ZM12,68C9.79086,68,8,69.79079999999999,8,72C8,74.2092,9.79086,76,12,76L29.6566,76L25.1714,80.4852C23.6092,82.0472,23.6092,84.58,25.1714,86.142C26.7334,87.7044,29.2661,87.7044,30.8282,86.142L42.1419,74.8284C43.704,73.2664,43.704,70.7336,42.1419,69.1716L30.8282,57.858C29.2661,56.2956,26.7334,56.2956,25.1714,57.858C23.6092,59.42,23.6092,61.9528,25.1714,63.5148L29.6566,68L12,68Z"
                  fill-rule="evenodd" fill="#121F3A" fill-opacity="1"/>
            <path d="" fill="#000000" fill-opacity="1"/>
        </g>
    </g>
</svg>