<svg xmlns="http://www.w3.org/2000/svg" xmlns:xlink="http://www.w3.org/1999/xlink" fill="none" version="1.1" width="148"
     height="148" viewBox="0 0 148 148">
    <g>
        <g>
            <rect x="0" y="0" width="148" height="148" rx="32" fill="#FFFFFF" fill-opacity="1"/>
        </g>
        <g>
            <path d="M54.4,42C50.86538,42,48,44.86538,48,48.4C48,48.4,48,99.6,48,99.6C48,103.13470000000001,50.86538,106,54.4,106C54.4,106,92.8,106,92.8,106C96.3347,106,99.2,103.13470000000001,99.2,99.6C99.2,99.6,99.2,62.5255,99.2,62.5255C99.2,60.8281,98.5258,59.200199999999995,97.3254,58C97.3254,58,83.2,43.87452,83.2,43.87452C81.99969999999999,42.674285,80.37180000000001,42,78.6745,42C78.6745,42,54.4,42,54.4,42C54.4,42,54.4,42,54.4,42ZM54.4,48.4C54.4,48.4,78.6745,48.4,78.6745,48.4C78.6745,48.4,92.8,62.5255,92.8,62.5255C92.8,62.5255,92.8,99.6,92.8,99.6C92.8,99.6,83.2,99.6,83.2,99.6C83.2,99.6,83.2,91.6,83.2,91.6C83.2,88.9491,81.0509,86.8,78.4,86.8C78.4,86.8,68.8,86.8,68.8,86.8C66.149,86.8,64,88.9491,64,91.6C64,91.6,64,99.6,64,99.6C64,99.6,54.4,99.6,54.4,99.6C54.4,99.6,54.4,48.4,54.4,48.4C54.4,48.4,54.4,48.4,54.4,48.4ZM76.8,99.6C76.8,99.6,76.8,93.2,76.8,93.2C76.8,93.2,70.4,93.2,70.4,93.2C70.4,93.2,70.4,99.6,70.4,99.6C70.4,99.6,76.8,99.6,76.8,99.6C76.8,99.6,76.8,99.6,76.8,99.6ZM64,80.4C64,78.6326,65.4327,77.2,67.2,77.2C67.2,77.2,70.4,77.2,70.4,77.2C72.1673,77.2,73.6,78.6326,73.6,80.4C73.6,82.1674,72.1673,83.6,70.4,83.6C70.4,83.6,67.2,83.6,67.2,83.6C65.4327,83.6,64,82.1674,64,80.4C64,80.4,64,80.4,64,80.4ZM67.2,64.4C65.4327,64.4,64,65.8327,64,67.6C64,69.3673,65.4327,70.8,67.2,70.8C67.2,70.8,70.4,70.8,70.4,70.8C72.1673,70.8,73.6,69.3673,73.6,67.6C73.6,65.8327,72.1673,64.4,70.4,64.4C70.4,64.4,67.2,64.4,67.2,64.4C67.2,64.4,67.2,64.4,67.2,64.4ZM73.6,74C73.6,72.2327,75.0327,70.8,76.8,70.8C76.8,70.8,80,70.8,80,70.8C81.76740000000001,70.8,83.2,72.2327,83.2,74C83.2,75.76740000000001,81.76740000000001,77.2,80,77.2C80,77.2,76.8,77.2,76.8,77.2C75.0327,77.2,73.6,75.76740000000001,73.6,74C73.6,74,73.6,74,73.6,74ZM76.8,58C75.0327,58,73.6,59.4327,73.6,61.2C73.6,62.9673,75.0327,64.4,76.8,64.4C76.8,64.4,80,64.4,80,64.4C81.76740000000001,64.4,83.2,62.9673,83.2,61.2C83.2,59.4327,81.76740000000001,58,80,58C80,58,76.8,58,76.8,58C76.8,58,76.8,58,76.8,58Z"
                  fill-rule="evenodd" fill="#121F3A" fill-opacity="1"/>
        </g>
    </g>
</svg>