<svg xmlns="http://www.w3.org/2000/svg" xmlns:xlink="http://www.w3.org/1999/xlink" fill="none" version="1.1" width="148"
     height="148" viewBox="0 0 148 148">
    <g>
        <g>
            <rect x="0" y="0" width="148" height="148" rx="32" fill="#FFFFFF" fill-opacity="1"/>
        </g>
        <g>
            <g>
                <path d="M42,74C42,56.3269,56.3269,42,74,42C91.673,42,106,56.3269,106,74C106,91.673,91.673,106,74,106C56.3269,106,42,91.673,42,74C42,74,42,74,42,74ZM74,48.4C59.8615,48.4,48.4,59.8615,48.4,74C48.4,88.1386,59.8615,99.6,74,99.6C88.1386,99.6,99.6,88.1386,99.6,74C99.6,64.5244,94.45179999999999,56.2512,86.8,51.82483C86.8,51.82483,86.8,74,86.8,74C86.8,81.06909999999999,81.06909999999999,86.8,74,86.8C66.9308,86.8,61.2,81.06909999999999,61.2,74C61.2,66.9308,66.9308,61.2,74,61.2C76.3315,61.2,78.51740000000001,61.8233,80.4,62.912400000000005C80.4,62.912400000000005,80.4,49.20653,80.4,49.20653C78.3546,48.68003,76.2099,48.4,74,48.4C74,48.4,74,48.4,74,48.4ZM80.4,74C80.4,70.4654,77.5347,67.6,74,67.6C70.4654,67.6,67.6,70.4654,67.6,74C67.6,77.5347,70.4654,80.4,74,80.4C77.5347,80.4,80.4,77.5347,80.4,74C80.4,74,80.4,74,80.4,74Z"
                      fill-rule="evenodd" fill="#121F3A" fill-opacity="1"/>
            </g>
        </g>
    </g>
</svg>