<svg xmlns="http://www.w3.org/2000/svg" xmlns:xlink="http://www.w3.org/1999/xlink" fill="none" version="1.1" width="148"
     height="148" viewBox="0 0 148 148">
    <g>
        <g>
            <rect x="0" y="0" width="148" height="148" rx="32" fill="#FFFFFF" fill-opacity="1"/>
        </g>
        <g>
            <path d="M44,53C44,49.68629,46.68629,47,50,47L98,47C101.3138,47,104,49.68629,104,53L104,95C104,98.3138,101.3138,101,98,101L50,101C46.6863,101,44,98.3138,44,95L44,53ZM98,53L50,53L50,95L98,95L98,53ZM69.0205,60.9142C66.7359,59.9341,64.1656,61.4221,63.875,63.8886C63.6821,65.5249,63.3481,69.0284,63.3481,73.6812C63.3481,78.3353,63.6823,81.83930000000001,63.8751,83.47489999999999C64.1653,85.9367,66.7308,87.431,69.0193,86.4491C70.5228,85.8038,73.6884,84.3572,77.7653,82.0034C81.8441,79.64869999999999,84.6803,77.6297,85.9901,76.6507C87.9824,75.1614,87.97370000000001,72.1952,85.9898,70.7118C84.6731,69.7274,81.8147,67.6898,77.76859999999999,65.3537C73.7248,63.019,70.5324,61.562799999999996,69.0205,60.9142ZM69.5453,67.7619C70.9744,68.4614,72.7555,69.38759999999999,74.76859999999999,70.5498C76.78190000000001,71.7123,78.4751,72.792,79.7954,73.68C78.4805,74.5625,76.78999999999999,75.6384,74.7653,76.8073C72.7424,77.9753,70.9665,78.9008,69.5451,79.5983C69.4366,78.0074,69.3481,76.0002,69.3481,73.6812C69.3481,71.3611,69.4366,69.35300000000001,69.5453,67.7619Z"
                  fill-rule="evenodd" fill="#121F3A" fill-opacity="1"/>
        </g>
    </g>
</svg>