<svg xmlns="http://www.w3.org/2000/svg" xmlns:xlink="http://www.w3.org/1999/xlink" fill="none" version="1.1" width="148"
     height="148" viewBox="0 0 148 148">
    <g>
        <g>
            <rect x="0" y="0" width="148" height="148" rx="32" fill="#FFFFFF" fill-opacity="1"/>
        </g>
        <g>
            <path d="M48,50.4C48,46.86538,50.86538,44,54.4,44C54.4,44,92.8,44,92.8,44C96.3347,44,99.2,46.86538,99.2,50.4C99.2,50.4,99.2,101.6,99.2,101.6C99.2,105.13470000000001,96.3347,108,92.8,108C92.8,108,54.4,108,54.4,108C50.86538,108,48,105.13470000000001,48,101.6C48,101.6,48,50.4,48,50.4C48,50.4,48,50.4,48,50.4ZM92.8,50.4C92.8,50.4,54.4,50.4,54.4,50.4C54.4,50.4,54.4,101.6,54.4,101.6C54.4,101.6,92.8,101.6,92.8,101.6C92.8,101.6,92.8,50.4,92.8,50.4C92.8,50.4,92.8,50.4,92.8,50.4ZM60.8,66.4C60.8,64.6327,62.2327,63.2,64,63.2C64,63.2,83.2,63.2,83.2,63.2C84.9674,63.2,86.4,64.6327,86.4,66.4C86.4,68.1673,84.9674,69.6,83.2,69.6C83.2,69.6,64,69.6,64,69.6C62.2327,69.6,60.8,68.1673,60.8,66.4C60.8,66.4,60.8,66.4,60.8,66.4ZM64,79.2C62.2327,79.2,60.8,80.6326,60.8,82.4C60.8,84.1674,62.2327,85.6,64,85.6C64,85.6,73.6,85.6,73.6,85.6C75.3673,85.6,76.8,84.1674,76.8,82.4C76.8,80.6326,75.3673,79.2,73.6,79.2C73.6,79.2,64,79.2,64,79.2C64,79.2,64,79.2,64,79.2Z"
                  fill-rule="evenodd" fill="#121F3A" fill-opacity="1"/>
        </g>
    </g>
</svg>