<svg xmlns="http://www.w3.org/2000/svg" xmlns:xlink="http://www.w3.org/1999/xlink" fill="none" version="1.1" width="148"
     height="148" viewBox="0 0 148 148">
    <defs>
        <clipPath id="master_svg0_811_3437">
            <rect x="38" y="38" width="72" height="72" rx="0"/>
        </clipPath>
    </defs>
    <g>
        <g>
            <g>
                <rect x="0" y="0" width="148" height="148" rx="32" fill="#FFFFFF" fill-opacity="1"/>
            </g>
            <g clip-path="url(#master_svg0_811_3437)">
                <g>
                    <path d="M69.806,44.12193C71.0815,43.386918,72.5278,43,74,43C75.4722,43,76.9187,43.386949,78.19409999999999,44.12202C78.1961,44.12314,78.19800000000001,44.12426,78.2,44.12539C78.2,44.12539,97.8,55.3253,97.8,55.3253C98.836,55.923500000000004,99.7295,56.7343,100.4233,57.700900000000004C100.5924,57.8699,100.7422,58.0635,100.8677,58.2802C100.97579999999999,58.4669,101.0598,58.6608,101.1208,58.8585C101.6968,60.0162,101.99860000000001,61.2936,102,62.5914C102,62.5914,102,84.99719999999999,102,84.99719999999999C101.99860000000001,86.47030000000001,101.6097,87.917,100.8724,89.1922C100.1352,90.4676,99.0757,91.5265,97.8,92.2632C97.8,92.2632,97.78909999999999,92.26939999999999,97.78909999999999,92.26939999999999C97.78909999999999,92.26939999999999,78.2,103.4632,78.2,103.4632C78.1983,103.464,78.19659999999999,103.46520000000001,78.195,103.46600000000001C77.3068,103.9781,76.3358,104.3211,75.3308,104.4824C74.9349,104.69659999999999,74.4816,104.8181,74,104.8181C73.5183,104.8181,73.0651,104.69659999999999,72.66929999999999,104.4824C71.6644,104.3211,70.6933,103.9781,69.8052,103.46600000000001C69.8034,103.46520000000001,69.8017,103.464,69.8,103.4632C69.8,103.4632,50.21081,92.26939999999999,50.21081,92.26939999999999C50.21081,92.26939999999999,50.2,92.2632,50.2,92.2632C48.92429,91.5265,47.86472,90.4676,47.12754,89.1922C46.390359,87.917,46.00151088,86.47030000000001,46,84.99719999999999C46,84.99719999999999,46,62.5914,46,62.5914C46.00133114,61.2936,46.303307,60.0162,46.879256,58.8585C46.940282,58.6609,47.02431,58.4669,47.1323,58.2802C47.25766,58.0635,47.40763,57.8699,47.57662,57.700900000000004C48.27062,56.7343,49.16406,55.923500000000004,50.2,55.3254C50.2,55.3254,50.21081,55.3192,50.21081,55.3192C50.21081,55.3192,69.806,44.12193,69.806,44.12193C69.806,44.12193,69.806,44.12193,69.806,44.12193ZM51.6,64.0994C51.6,64.0994,51.6,84.9927,51.6,84.9927C51.6007,85.4833,51.73031,85.9649,51.97584,86.3896C52.22073,86.8133,52.57233,87.16550000000001,52.995580000000004,87.4108C52.99706,87.41159999999999,52.99852,87.4125,53,87.41329999999999C53,87.41329999999999,71.2,97.8134,71.2,97.8134C71.2,97.8134,71.2,75.43719999999999,71.2,75.43719999999999C71.2,75.43719999999999,51.6,64.0994,51.6,64.0994C51.6,64.0994,51.6,64.0994,51.6,64.0994ZM76.8,75.43719999999999C76.8,75.43719999999999,76.8,97.8134,76.8,97.8134C76.8,97.8134,95,87.41329999999999,95,87.41329999999999C95.00139999999999,87.4125,95.0031,87.41159999999999,95.00450000000001,87.4108C95.4276,87.16550000000001,95.7792,86.8133,96.02420000000001,86.3896C96.2698,85.96459999999999,96.3994,85.4824,96.4,84.9913C96.4,84.9913,96.4,64.0994,96.4,64.0994C96.4,64.0994,76.8,75.43719999999999,76.8,75.43719999999999C76.8,75.43719999999999,76.8,75.43719999999999,76.8,75.43719999999999ZM93.49080000000001,59.312799999999996C93.49080000000001,59.312799999999996,75.4,48.975139999999996,75.4,48.975139999999996C74.9744,48.72939,74.4914,48.6,74,48.6C73.5085,48.6,73.0257,48.72939,72.6,48.975120000000004C72.6,48.975120000000004,72.5892,48.98136,72.5892,48.98136C72.5892,48.98136,54.50917,59.312799999999996,54.50917,59.312799999999996C54.50917,59.312799999999996,74,70.5875,74,70.5875C74,70.5875,93.49080000000001,59.312799999999996,93.49080000000001,59.312799999999996C93.49080000000001,59.312799999999996,93.49080000000001,59.312799999999996,93.49080000000001,59.312799999999996Z"
                          fill-rule="evenodd" fill="#121F3A" fill-opacity="1"/>
                </g>
            </g>
        </g>
    </g>
</svg>