<svg xmlns="http://www.w3.org/2000/svg" xmlns:xlink="http://www.w3.org/1999/xlink" fill="none" version="1.1" width="148"
     height="148" viewBox="0 0 148 148">
    <g>
        <g>
            <rect x="0" y="0" width="148" height="148" rx="32" fill="#FFFFFF" fill-opacity="1"/>
        </g>
        <g>
            <g>
                <path d="M50,47C46.68629,47,44,49.68629,44,53L44,95C44,98.3138,46.6863,101,50,101L98,101C101.3138,101,104,98.3138,104,95L104,53C104,49.68629,101.3138,47,98,47L50,47ZM50,53L98,53L98,83.3021L91.5005,76.8024C90.0359,75.3379,87.6617,75.3379,86.1971,76.8024L82.48490000000001,80.51480000000001L70.2872,68.3171C68.8227,66.8526,66.44839999999999,66.8526,64.9839,68.3171L50,83.3009L50,53ZM84.5,68C86.98519999999999,68,89,65.9853,89,63.5C89,61.0147,86.98519999999999,59,84.5,59C82.01480000000001,59,80,61.0147,80,63.5C80,65.9853,82.01480000000001,68,84.5,68ZM97.334,91.12129999999999C97.5368,91.3241,97.7612,91.4918,98,91.6241L98,95L50,95L50,91.6238C50.23838,91.49119999999999,50.46254,91.3238,50.66498,91.12129999999999L67.6356,74.1507L79.8332,86.3483C81.2975,87.8129,83.672,87.8129,85.1363,86.3483L88.8488,82.6361L97.334,91.12129999999999Z"
                      fill-rule="evenodd" fill="#121F3A" fill-opacity="1"/>
            </g>
        </g>
    </g>
</svg>