<svg xmlns="http://www.w3.org/2000/svg" xmlns:xlink="http://www.w3.org/1999/xlink" fill="none" version="1.1" width="148"
     height="148" viewBox="0 0 148 148">
    <g>
        <g>
            <rect x="0" y="0" width="148" height="148" rx="32" fill="#FFFFFF" fill-opacity="1"/>
        </g>
        <g>
            <path d="M54.4,42C50.86538,42,48,44.86538,48,48.4C48,48.4,48,99.6,48,99.6C48,103.13470000000001,50.86538,106,54.4,106C54.4,106,92.8,106,92.8,106C96.3347,106,99.2,103.13470000000001,99.2,99.6C99.2,99.6,99.2,62.5255,99.2,62.5255C99.2,60.8281,98.5258,59.200199999999995,97.3254,58C97.3254,58,83.2,43.87452,83.2,43.87452C81.99969999999999,42.674285,80.37180000000001,42,78.6745,42C78.6745,42,54.4,42,54.4,42C54.4,42,54.4,42,54.4,42ZM73.6,48.4C73.6,48.4,54.4,48.4,54.4,48.4C54.4,48.4,54.4,99.6,54.4,99.6C54.4,99.6,92.8,99.6,92.8,99.6C92.8,99.6,92.8,67.6,92.8,67.6C92.8,67.6,78.4,67.6,78.4,67.6C75.749,67.6,73.6,65.451,73.6,62.8C73.6,62.8,73.6,48.4,73.6,48.4C73.6,48.4,73.6,48.4,73.6,48.4ZM91.47460000000001,61.2C91.47460000000001,61.2,80,49.72547,80,49.72547C80,49.72547,80,61.2,80,61.2C80,61.2,91.47460000000001,61.2,91.47460000000001,61.2C91.47460000000001,61.2,91.47460000000001,61.2,91.47460000000001,61.2Z"
                  fill-rule="evenodd" fill="#121F3A" fill-opacity="1"/>
        </g>
    </g>
</svg>